<svg width="527" height="408" viewBox="0 0 527 408" fill="none" xmlns="http://www.w3.org/2000/svg">
<line y1="-0.263736" x2="525.004" y2="-0.263736" transform="matrix(0.999993 -0.00378396 0.0027183 0.999996 1 29.9736)" stroke="#9F8DD5" stroke-opacity="0.28" stroke-width="0.527472"/>
<line y1="-0.263736" x2="525.004" y2="-0.263736" transform="matrix(0.999993 -0.00378396 0.0027183 0.999996 1 2.98682)" stroke="#9F8DD5" stroke-opacity="0.28" stroke-width="0.527472"/>
<line y1="-0.263736" x2="525.004" y2="-0.263736" transform="matrix(0.999993 -0.00378396 0.0027183 0.999996 1 56.9604)" stroke="#9F8DD5" stroke-opacity="0.28" stroke-width="0.527472"/>
<line y1="-0.263736" x2="525.004" y2="-0.263736" transform="matrix(0.999993 -0.00378396 0.0027183 0.999996 1 83.9473)" stroke="#9F8DD5" stroke-opacity="0.28" stroke-width="0.527472"/>
<line y1="-0.263736" x2="525.004" y2="-0.263736" transform="matrix(0.999993 -0.00378396 0.0027183 0.999996 1 110.934)" stroke="#9F8DD5" stroke-opacity="0.28" stroke-width="0.527472"/>
<line y1="-0.263736" x2="525.004" y2="-0.263736" transform="matrix(0.999993 -0.00378396 0.0027183 0.999996 1 137.921)" stroke="#9F8DD5" stroke-opacity="0.28" stroke-width="0.527472"/>
<line y1="-0.263736" x2="525.004" y2="-0.263736" transform="matrix(0.999993 -0.00378396 0.0027183 0.999996 1 164.908)" stroke="#9F8DD5" stroke-opacity="0.28" stroke-width="0.527472"/>
<line y1="-0.263736" x2="525.004" y2="-0.263736" transform="matrix(0.999993 -0.00378396 0.0027183 0.999996 1 191.895)" stroke="#9F8DD5" stroke-opacity="0.28" stroke-width="0.527472"/>
<line y1="-0.263736" x2="525.004" y2="-0.263736" transform="matrix(0.999993 -0.00378396 0.0027183 0.999996 1 218.881)" stroke="#9F8DD5" stroke-opacity="0.28" stroke-width="0.527472"/>
<line y1="-0.263736" x2="525.004" y2="-0.263736" transform="matrix(0.999993 -0.00378396 0.0027183 0.999996 1 245.868)" stroke="#9F8DD5" stroke-opacity="0.28" stroke-width="0.527472"/>
<line y1="-0.263736" x2="525.004" y2="-0.263736" transform="matrix(0.999993 -0.00378396 0.0027183 0.999996 1 272.855)" stroke="#9F8DD5" stroke-opacity="0.28" stroke-width="0.527472"/>
<line y1="-0.263736" x2="525.004" y2="-0.263736" transform="matrix(0.999993 -0.00378396 0.0027183 0.999996 1 299.842)" stroke="#9F8DD5" stroke-opacity="0.28" stroke-width="0.527472"/>
<line y1="-0.263736" x2="525.004" y2="-0.263736" transform="matrix(0.999993 -0.00378396 0.0027183 0.999996 1 326.829)" stroke="#9F8DD5" stroke-opacity="0.28" stroke-width="0.527472"/>
<line y1="-0.263736" x2="525.004" y2="-0.263736" transform="matrix(0.999993 -0.00378396 0.0027183 0.999996 1 353.815)" stroke="#9F8DD5" stroke-opacity="0.28" stroke-width="0.527472"/>
<line y1="-0.263736" x2="525.004" y2="-0.263736" transform="matrix(0.999993 -0.00378396 0.0027183 0.999996 1 380.802)" stroke="#9F8DD5" stroke-opacity="0.28" stroke-width="0.527472"/>
<line y1="-0.263736" x2="525.004" y2="-0.263736" transform="matrix(0.999993 -0.00378396 0.0027183 0.999996 1 407.789)" stroke="#9F8DD5" stroke-opacity="0.28" stroke-width="0.527472"/>
<line x1="1.26374" y1="3" x2="1.26372" y2="407" stroke="#9F8DD5" stroke-opacity="0.28" stroke-width="0.527472"/>
<line x1="26.2637" y1="3" x2="26.2637" y2="407" stroke="#9F8DD5" stroke-opacity="0.28" stroke-width="0.527472"/>
<line x1="51.2637" y1="3" x2="51.2637" y2="407" stroke="#9F8DD5" stroke-opacity="0.28" stroke-width="0.527472"/>
<line x1="76.2637" y1="3" x2="76.2637" y2="407" stroke="#9F8DD5" stroke-opacity="0.28" stroke-width="0.527472"/>
<line x1="101.264" y1="3" x2="101.264" y2="407" stroke="#9F8DD5" stroke-opacity="0.28" stroke-width="0.527472"/>
<line x1="126.264" y1="3" x2="126.264" y2="407" stroke="#9F8DD5" stroke-opacity="0.28" stroke-width="0.527472"/>
<line x1="151.264" y1="3" x2="151.264" y2="407" stroke="#9F8DD5" stroke-opacity="0.28" stroke-width="0.527472"/>
<line x1="176.264" y1="3" x2="176.264" y2="407" stroke="#9F8DD5" stroke-opacity="0.28" stroke-width="0.527472"/>
<line x1="201.264" y1="3" x2="201.264" y2="407" stroke="#9F8DD5" stroke-opacity="0.28" stroke-width="0.527472"/>
<line x1="226.264" y1="3" x2="226.264" y2="407" stroke="#9F8DD5" stroke-opacity="0.28" stroke-width="0.527472"/>
<line x1="251.264" y1="3" x2="251.264" y2="407" stroke="#9F8DD5" stroke-opacity="0.28" stroke-width="0.527472"/>
<line x1="276.264" y1="3" x2="276.264" y2="407" stroke="#9F8DD5" stroke-opacity="0.28" stroke-width="0.527472"/>
<line x1="301.264" y1="3" x2="301.264" y2="407" stroke="#9F8DD5" stroke-opacity="0.28" stroke-width="0.527472"/>
<line x1="326.264" y1="3" x2="326.264" y2="407" stroke="#9F8DD5" stroke-opacity="0.28" stroke-width="0.527472"/>
<line x1="351.264" y1="3" x2="351.264" y2="407" stroke="#9F8DD5" stroke-opacity="0.28" stroke-width="0.527472"/>
<line x1="376.264" y1="3" x2="376.264" y2="407" stroke="#9F8DD5" stroke-opacity="0.28" stroke-width="0.527472"/>
<line x1="401.264" y1="3" x2="401.264" y2="407" stroke="#9F8DD5" stroke-opacity="0.28" stroke-width="0.527472"/>
<line x1="426.264" y1="3" x2="426.264" y2="407" stroke="#9F8DD5" stroke-opacity="0.28" stroke-width="0.527472"/>
<line x1="451.264" y1="3" x2="451.264" y2="407" stroke="#9F8DD5" stroke-opacity="0.28" stroke-width="0.527472"/>
<line x1="476.264" y1="3" x2="476.264" y2="407" stroke="#9F8DD5" stroke-opacity="0.28" stroke-width="0.527472"/>
<line x1="501.264" y1="3" x2="501.264" y2="407" stroke="#9F8DD5" stroke-opacity="0.28" stroke-width="0.527472"/>
<line x1="526.264" y1="3" x2="526.264" y2="407" stroke="#9F8DD5" stroke-opacity="0.28" stroke-width="0.527472"/>
</svg>
