<svg width="1439" height="920" viewBox="0 0 1439 920" fill="none" xmlns="http://www.w3.org/2000/svg">
<path d="M0.998505 5.4624L1431 5.46338" stroke="#9F8DD5" stroke-opacity="0.28"/>
<line y1="-0.5" x2="1430.01" y2="-0.5" transform="matrix(0.999994 -0.00346957 0.00296461 0.999996 1 75.9238)" stroke="#9F8DD5" stroke-opacity="0.28"/>
<line y1="-0.5" x2="1430.01" y2="-0.5" transform="matrix(0.999994 -0.00346957 0.00296461 0.999996 1 145.885)" stroke="#9F8DD5" stroke-opacity="0.28"/>
<line y1="-0.5" x2="1430.01" y2="-0.5" transform="matrix(0.999994 -0.00346957 0.00296461 0.999996 1 215.847)" stroke="#9F8DD5" stroke-opacity="0.28"/>
<line y1="-0.5" x2="1430.01" y2="-0.5" transform="matrix(0.999994 -0.00346957 0.00296461 0.999996 1 285.808)" stroke="#9F8DD5" stroke-opacity="0.28"/>
<line y1="-0.5" x2="1430.01" y2="-0.5" transform="matrix(0.999994 -0.00346957 0.00296461 0.999996 1 355.77)" stroke="#9F8DD5" stroke-opacity="0.28"/>
<line y1="-0.5" x2="1430.01" y2="-0.5" transform="matrix(0.999994 -0.00346957 0.00296461 0.999996 1 425.731)" stroke="#9F8DD5" stroke-opacity="0.28"/>
<line y1="-0.5" x2="1430.01" y2="-0.5" transform="matrix(0.999994 -0.00346957 0.00296461 0.999996 1 495.692)" stroke="#9F8DD5" stroke-opacity="0.28"/>
<line y1="-0.5" x2="1430.01" y2="-0.5" transform="matrix(0.999994 -0.00346957 0.00296461 0.999996 1 565.654)" stroke="#9F8DD5" stroke-opacity="0.28"/>
<line y1="-0.5" x2="1430.01" y2="-0.5" transform="matrix(0.999994 -0.00346957 0.00296461 0.999996 1 635.615)" stroke="#9F8DD5" stroke-opacity="0.28"/>
<line y1="-0.5" x2="1430.01" y2="-0.5" transform="matrix(0.999994 -0.00346957 0.00296461 0.999996 1 705.577)" stroke="#9F8DD5" stroke-opacity="0.28"/>
<path d="M0.998505 775.038L1434 775.038" stroke="#9F8DD5" stroke-opacity="0.28"/>
<path d="M0.998505 845L1438.5 845" stroke="#9F8DD5" stroke-opacity="0.28"/>
<path d="M0.998505 914.961L1431.5 914.961" stroke="#9F8DD5" stroke-opacity="0.28"/>
<line x1="1.50003" y1="4.00098" x2="1.49999" y2="915.001" stroke="#9F8DD5" stroke-opacity="0.28"/>
<line x1="66.5001" y1="4.00098" x2="66.5" y2="915.001" stroke="#9F8DD5" stroke-opacity="0.28"/>
<line x1="131.5" y1="4.00098" x2="131.5" y2="915.001" stroke="#9F8DD5" stroke-opacity="0.28"/>
<line x1="196.5" y1="4.00098" x2="196.5" y2="915.001" stroke="#9F8DD5" stroke-opacity="0.28"/>
<line x1="261.5" y1="4.00098" x2="261.5" y2="915.001" stroke="#9F8DD5" stroke-opacity="0.28"/>
<line x1="326.5" y1="4.00098" x2="326.5" y2="915.001" stroke="#9F8DD5" stroke-opacity="0.28"/>
<line x1="391.5" y1="4.00098" x2="391.5" y2="915.001" stroke="#9F8DD5" stroke-opacity="0.28"/>
<line x1="456.5" y1="4.00098" x2="456.5" y2="915.001" stroke="#9F8DD5" stroke-opacity="0.28"/>
<line x1="521.5" y1="4.00098" x2="521.5" y2="915.001" stroke="#9F8DD5" stroke-opacity="0.28"/>
<line x1="586.5" y1="4.00098" x2="586.5" y2="915.001" stroke="#9F8DD5" stroke-opacity="0.28"/>
<line x1="651.5" y1="4.00098" x2="651.5" y2="915.001" stroke="#9F8DD5" stroke-opacity="0.28"/>
<line x1="716.5" y1="4.00098" x2="716.5" y2="915.001" stroke="#9F8DD5" stroke-opacity="0.28"/>
<line x1="781.5" y1="4.00098" x2="781.5" y2="915.001" stroke="#9F8DD5" stroke-opacity="0.28"/>
<line x1="846.501" y1="4.00098" x2="846.5" y2="915.001" stroke="#9F8DD5" stroke-opacity="0.28"/>
<line x1="911.501" y1="4.00098" x2="911.501" y2="915.001" stroke="#9F8DD5" stroke-opacity="0.28"/>
<line x1="976.501" y1="4.00098" x2="976.501" y2="915.001" stroke="#9F8DD5" stroke-opacity="0.28"/>
<line x1="1041.5" y1="4.00098" x2="1041.5" y2="915.001" stroke="#9F8DD5" stroke-opacity="0.28"/>
<line x1="1106.5" y1="4.00098" x2="1106.5" y2="915.001" stroke="#9F8DD5" stroke-opacity="0.28"/>
<line x1="1171.5" y1="4.00098" x2="1171.5" y2="915.001" stroke="#9F8DD5" stroke-opacity="0.28"/>
<line x1="1236.5" y1="4.00098" x2="1236.5" y2="915.001" stroke="#9F8DD5" stroke-opacity="0.28"/>
<line x1="1301.5" y1="4.00098" x2="1301.5" y2="915.001" stroke="#9F8DD5" stroke-opacity="0.28"/>
<line x1="1366.5" y1="4.00098" x2="1366.5" y2="915.001" stroke="#9F8DD5" stroke-opacity="0.28"/>
<line x1="1431.5" y1="4.00098" x2="1431.5" y2="915.001" stroke="#9F8DD5" stroke-opacity="0.28"/>
</svg>
